<svg width="301" height="306" viewBox="0 0 301 306" fill="none" xmlns="http://www.w3.org/2000/svg">
<g clip-path="url(#clip0_1182_3524)">
<path d="M296.157 286.978H0.740338C0.708776 286.978 0.677524 286.972 0.648365 286.96C0.619205 286.947 0.592711 286.929 0.570393 286.906C0.548076 286.883 0.530373 286.855 0.518295 286.825C0.506217 286.795 0.5 286.763 0.5 286.73C0.5 286.697 0.506217 286.665 0.518295 286.635C0.530373 286.605 0.548076 286.577 0.570393 286.554C0.592711 286.531 0.619205 286.513 0.648365 286.5C0.677524 286.488 0.708776 286.481 0.740338 286.481H296.157C296.22 286.481 296.282 286.508 296.327 286.554C296.372 286.601 296.397 286.664 296.397 286.73C296.397 286.796 296.372 286.859 296.327 286.906C296.282 286.952 296.22 286.978 296.157 286.978H296.157Z" fill="#292A2E"/>
<g opacity="0.65">
<path d="M296.157 286.978H0.740338C0.708776 286.978 0.677524 286.972 0.648365 286.96C0.619205 286.947 0.592711 286.929 0.570393 286.906C0.548076 286.883 0.530373 286.855 0.518295 286.825C0.506217 286.795 0.5 286.763 0.5 286.73C0.5 286.697 0.506217 286.665 0.518295 286.635C0.530373 286.605 0.548076 286.577 0.570393 286.554C0.592711 286.531 0.619205 286.513 0.648365 286.5C0.677524 286.488 0.708776 286.481 0.740338 286.481H296.157C296.22 286.481 296.282 286.508 296.327 286.554C296.372 286.601 296.397 286.664 296.397 286.73C296.397 286.796 296.372 286.859 296.327 286.906C296.282 286.952 296.22 286.978 296.157 286.978H296.157Z" fill="#292A2E"/>
</g>
<path d="M21.3074 286.541L20.6331 286.407L31.1723 178.096L31.8466 178.23L21.3074 286.541Z" fill="#494949"/>
<path d="M60.5505 286.541L59.8762 286.407L70.4153 178.096L71.0893 178.23L60.5505 286.541Z" fill="#494949"/>
<path d="M147.295 286.541L147.969 286.407L137.43 178.096L136.756 178.23L147.295 286.541Z" fill="#494949"/>
<path d="M108.052 286.541L108.726 286.407L98.187 178.096L97.5127 178.23L108.052 286.541Z" fill="#494949"/>
<path d="M94.075 130.428L93.3943 130.522L99.5511 178.211L100.232 178.117L94.075 130.428Z" fill="#494949"/>
<path d="M23.4072 130.427L22.7266 130.521L28.8833 178.21L29.5639 178.116L23.4072 130.427Z" fill="#494949"/>
<path d="M100.173 174.67H31.0517C29.1868 174.67 27.675 176.234 27.675 178.163V178.163C27.675 180.092 29.1868 181.655 31.0517 181.655H100.173C102.038 181.655 103.55 180.092 103.55 178.163V178.163C103.55 176.234 102.038 174.67 100.173 174.67Z" fill="#292A2E"/>
<path opacity="0.8" d="M100.173 174.67H31.0517C29.1868 174.67 27.675 176.234 27.675 178.163V178.163C27.675 180.092 29.1868 181.655 31.0517 181.655H100.173C102.038 181.655 103.55 180.092 103.55 178.163V178.163C103.55 176.234 102.038 174.67 100.173 174.67Z" fill="white"/>
<path d="M100.172 182.01H31.0518C30.0713 182.001 29.1341 181.591 28.4441 180.87C27.7541 180.15 27.3671 179.177 27.3671 178.163C27.3671 177.149 27.7541 176.176 28.4441 175.455C29.1341 174.735 30.0713 174.325 31.0518 174.315H100.172C101.152 174.325 102.089 174.735 102.779 175.455C103.469 176.176 103.856 177.149 103.856 178.163C103.856 179.177 103.469 180.15 102.779 180.87C102.089 181.591 101.152 182.001 100.172 182.01ZM31.0518 175.026C30.2528 175.034 29.4894 175.369 28.9275 175.956C28.3655 176.544 28.0503 177.337 28.0503 178.163C28.0503 178.989 28.3655 179.782 28.9275 180.37C29.4894 180.957 30.2528 181.291 31.0518 181.3H100.172C100.971 181.291 101.734 180.957 102.296 180.37C102.858 179.782 103.173 178.989 103.173 178.163C103.173 177.337 102.858 176.544 102.296 175.956C101.734 175.369 100.971 175.034 100.172 175.026H31.0518Z" fill="#292A2E"/>
<path d="M138.11 174.67H68.9891C67.1242 174.67 65.6124 176.234 65.6124 178.163V178.163C65.6124 180.092 67.1242 181.655 68.9891 181.655H138.11C139.975 181.655 141.487 180.092 141.487 178.163V178.163C141.487 176.234 139.975 174.67 138.11 174.67Z" fill="white"/>
<path d="M138.111 182.01H68.9894C68.4979 182.015 68.0103 181.919 67.5548 181.728C67.0993 181.537 66.6849 181.254 66.3356 180.897C65.9864 180.539 65.7091 180.113 65.5199 179.644C65.3307 179.175 65.2333 178.671 65.2333 178.163C65.2333 177.654 65.3307 177.151 65.5199 176.682C65.7091 176.213 65.9864 175.787 66.3356 175.429C66.6849 175.071 67.0993 174.789 67.5548 174.598C68.0103 174.406 68.4979 174.31 68.9894 174.315H138.111C138.602 174.31 139.09 174.406 139.545 174.598C140.001 174.789 140.415 175.071 140.764 175.429C141.114 175.787 141.391 176.213 141.58 176.682C141.769 177.151 141.867 177.654 141.867 178.163C141.867 178.671 141.769 179.175 141.58 179.644C141.391 180.113 141.114 180.539 140.764 180.897C140.415 181.254 140.001 181.537 139.545 181.728C139.09 181.919 138.602 182.015 138.111 182.01ZM68.9894 175.026C68.5884 175.021 68.1904 175.099 67.8186 175.255C67.4468 175.41 67.1086 175.641 66.8234 175.933C66.5383 176.224 66.3119 176.572 66.1575 176.954C66.003 177.337 65.9234 177.748 65.9234 178.163C65.9234 178.578 66.003 178.988 66.1575 179.371C66.3119 179.754 66.5383 180.101 66.8234 180.393C67.1086 180.685 67.4468 180.915 67.8186 181.071C68.1904 181.227 68.5884 181.305 68.9894 181.3H138.111C138.512 181.305 138.91 181.227 139.281 181.071C139.653 180.915 139.991 180.685 140.277 180.393C140.562 180.101 140.788 179.754 140.943 179.371C141.097 178.988 141.177 178.578 141.177 178.163C141.177 177.748 141.097 177.337 140.943 176.954C140.788 176.572 140.562 176.224 140.277 175.933C139.991 175.641 139.653 175.41 139.281 175.255C138.91 175.099 138.512 175.021 138.111 175.026H68.9894Z" fill="#292A2E"/>
<path d="M90.2885 130.474H23.2524C22.1565 130.474 21.098 130.061 20.2745 129.313C19.451 128.565 18.9188 127.533 18.7773 126.409L14.3431 91.192C14.2602 90.5337 14.314 89.8647 14.501 89.2296C14.688 88.5946 15.0038 88.0081 15.4274 87.5093C15.8509 87.0105 16.3725 86.6109 16.9573 86.3371C17.5421 86.0634 18.1766 85.9218 18.8185 85.9219H85.8543C86.9502 85.9219 88.0087 86.3343 88.8322 87.0823C89.6557 87.8302 90.1879 88.8625 90.3294 89.9865L94.7636 125.204C94.8465 125.862 94.7926 126.531 94.6056 127.166C94.4187 127.801 94.1029 128.387 93.6793 128.886C93.2558 129.385 92.7343 129.784 92.1495 130.058C91.5648 130.332 90.9304 130.474 90.2885 130.474Z" fill="#292A2E"/>
<path opacity="0.8" d="M90.2885 130.474H23.2524C22.1565 130.474 21.098 130.061 20.2745 129.313C19.451 128.565 18.9188 127.533 18.7773 126.409L14.3431 91.192C14.2602 90.5337 14.314 89.8647 14.501 89.2296C14.688 88.5946 15.0038 88.0081 15.4274 87.5093C15.8509 87.0105 16.3725 86.6109 16.9573 86.3371C17.5421 86.0634 18.1766 85.9218 18.8185 85.9219H85.8543C86.9502 85.9219 88.0087 86.3343 88.8322 87.0823C89.6557 87.8302 90.1879 88.8625 90.3294 89.9865L94.7636 125.204C94.8465 125.862 94.7926 126.531 94.6056 127.166C94.4187 127.801 94.1029 128.387 93.6793 128.886C93.2558 129.385 92.7343 129.784 92.1495 130.058C91.5648 130.332 90.9304 130.474 90.2885 130.474Z" fill="white"/>
<path d="M90.2885 130.829H23.2525C22.0739 130.826 20.9364 130.381 20.0508 129.577C19.1652 128.773 18.5918 127.664 18.4368 126.456L14.0025 91.2385C13.9133 90.5302 13.9712 89.8103 14.1724 89.1269C14.3736 88.4436 14.7134 87.8125 15.1692 87.2757C15.625 86.739 16.1862 86.309 16.8155 86.0144C17.4447 85.7198 18.1275 85.5675 18.8182 85.5675H85.8543C87.033 85.5703 88.1707 86.0151 89.0564 86.8195C89.942 87.6239 90.5155 88.7333 90.6703 89.9418L95.1045 125.158C95.1936 125.867 95.1357 126.587 94.9344 127.27C94.7332 127.953 94.3933 128.584 93.9375 129.121C93.4817 129.658 92.9205 130.088 92.2912 130.382C91.662 130.677 90.9792 130.829 90.2885 130.829V130.829ZM18.8182 86.277C18.2252 86.277 17.639 86.4078 17.0987 86.6608C16.5585 86.9137 16.0766 87.2829 15.6853 87.7438C15.294 88.2046 15.0022 88.7465 14.8295 89.3332C14.6568 89.9199 14.6071 90.538 14.6837 91.1462L19.1176 126.363C19.2507 127.401 19.743 128.353 20.5034 129.044C21.2638 129.734 22.2405 130.116 23.2525 130.119H90.2885C90.8817 130.119 91.468 129.988 92.0083 129.735C92.5487 129.482 93.0306 129.112 93.422 128.651C93.8133 128.191 94.1051 127.649 94.2778 127.062C94.4504 126.475 94.5001 125.857 94.4234 125.248L89.9891 90.0316C89.8561 88.9942 89.3637 88.0419 88.6033 87.3515C87.8429 86.661 86.8662 86.2792 85.8543 86.277H18.8182Z" fill="#292A2E"/>
<path d="M94.0793 130.474H27.0433C25.9473 130.474 24.8887 130.061 24.0652 129.313C23.2416 128.565 22.7094 127.533 22.5678 126.409L18.1336 91.192C18.0508 90.5337 18.1047 89.8648 18.2917 89.2297C18.4787 88.5947 18.7946 88.0083 19.2181 87.5095C19.6417 87.0107 20.1632 86.6111 20.748 86.3373C21.3327 86.0636 21.9672 85.9219 22.609 85.9219H89.6451C90.7411 85.9219 91.7997 86.3343 92.6232 87.0823C93.4467 87.8302 93.979 88.8625 94.1205 89.9865L98.5548 125.204C98.6376 125.862 98.5837 126.531 98.3967 127.166C98.2096 127.801 97.8938 128.387 97.4703 128.886C97.0467 129.385 96.5251 129.784 95.9404 130.058C95.3557 130.332 94.7212 130.474 94.0793 130.474Z" fill="white"/>
<path d="M94.0793 130.829H27.0433C25.8647 130.826 24.7272 130.381 23.8416 129.577C22.956 128.773 22.3825 127.664 22.2276 126.456L17.7934 91.2385C17.7041 90.5302 17.7621 89.8103 17.9633 89.1269C18.1644 88.4436 18.5043 87.8125 18.96 87.2757C19.4158 86.739 19.9771 86.309 20.6063 86.0144C21.2356 85.7198 21.9183 85.5675 22.6091 85.5675H89.6451C90.8238 85.5702 91.9615 86.015 92.8471 86.8195C93.7328 87.6239 94.3061 88.7333 94.4608 89.9418L98.895 125.158C98.9842 125.867 98.9263 126.587 98.7252 127.27C98.524 127.953 98.1841 128.585 97.7284 129.121C97.2726 129.658 96.7113 130.088 96.0821 130.383C95.4528 130.677 94.7701 130.83 94.0793 130.829V130.829ZM22.6091 86.277C22.016 86.277 21.4298 86.4078 20.8895 86.6608C20.3493 86.9137 19.8674 87.2829 19.476 87.7437C19.0847 88.2046 18.7929 88.7465 18.6202 89.3332C18.4474 89.9199 18.3976 90.538 18.4742 91.1462L22.9084 126.363C23.0414 127.401 23.5337 128.353 24.2941 129.044C25.0545 129.734 26.0313 130.116 27.0433 130.119H94.0793C94.6725 130.119 95.2589 129.988 95.7993 129.735C96.3397 129.482 96.8216 129.113 97.213 128.652C97.6044 128.191 97.8962 127.649 98.0689 127.062C98.2416 126.475 98.2913 125.857 98.2145 125.248L93.7803 90.0316C93.6474 88.994 93.1551 88.0415 92.3947 87.3509C91.6343 86.6602 90.6575 86.2783 89.6455 86.2759L22.6091 86.277Z" fill="#292A2E"/>
<path d="M188.623 268.426C188.623 268.426 190.464 278.296 199.398 278.845C208.333 279.395 206.396 286.756 206.396 286.756H172.253V269.115L188.623 268.426Z" fill="black"/>
<path d="M123.667 262.195C123.667 262.195 121.107 271.891 128.89 276.464C136.672 281.036 131.791 286.756 131.791 286.756L101.155 271.168L108.684 255.338L123.667 262.195Z" fill="black"/>
<path d="M96.1747 32.2344C96.1747 32.2344 100.629 28.7571 101.733 20.7529C102.588 14.5552 97.0599 18.5702 97.0599 18.5702C97.0599 18.5702 97.6333 14.1018 94.4848 14.5449C91.3364 14.9881 89.5751 19.683 89.5751 19.683" fill="#0C0C0C"/>
<path d="M78.2143 15.068C78.2143 15.068 62.5941 16.8001 68.2406 38.6902L69.6229 38.7857L72.4287 38.9803" fill="#0C0C0C"/>
<path d="M93.5585 61.5512C93.4898 61.5419 92.7276 74.6182 78.0375 73.4791C67.8677 72.6915 64.2417 61.5327 64.0086 61.5327C65.1052 61.2916 66.4601 60.9259 66.9988 60.8002C68.1724 60.5184 69.2352 59.8738 70.0459 58.952C70.8566 58.0302 71.3767 56.8751 71.537 55.6401C71.8347 53.7866 71.331 44.303 71.4852 42.4275L87.0958 46.0312C86.8778 49.9922 85.3509 59.175 90.7009 60.8002C91.5925 61.069 92.5515 61.3161 93.5585 61.5512Z" fill="#E98862"/>
<path opacity="0.52" d="M87.3152 57.0473C87.0707 56.2324 86.9132 55.3922 86.8455 54.5419C86.6742 52.6011 86.7087 50.6469 86.9485 48.7139C83.7756 48.271 80.7865 46.9165 78.3207 44.8044C78.031 45.9116 76.4368 50.7492 76.8787 51.8017C77.7113 53.7905 81.6312 57.0473 87.3152 57.0473Z" fill="#0C0C0C"/>
<path d="M84.0933 54.4591C77.9345 53.8878 70.5633 49.8637 70.4572 41.2178L70.3611 33.417C70.255 24.7711 74.5595 17.7046 82.4309 17.6012C90.3019 17.4976 96.2716 24.4291 96.3777 33.0747L96.4202 36.5282C96.4148 37.7143 96.3312 38.8986 96.17 40.073C95.7662 43.18 95.1399 47.9036 93.1015 51.0994C91.1761 54.1158 88.0277 54.8242 84.0933 54.4591Z" fill="#E98862"/>
<path d="M86.9506 46.5563C88.2215 46.6159 89.4881 46.3657 90.6483 45.8259C90.6723 45.8153 90.6941 45.8 90.7123 45.7807C90.7306 45.7614 90.7449 45.7386 90.7547 45.7136C90.7644 45.6886 90.7693 45.6618 90.769 45.6348C90.7687 45.6079 90.7633 45.5812 90.7531 45.5564C90.7428 45.5316 90.728 45.5091 90.7093 45.4903C90.6907 45.4714 90.6687 45.4565 90.6445 45.4464C90.6203 45.4364 90.5944 45.4314 90.5683 45.4316C90.5422 45.4319 90.5165 45.4375 90.4925 45.4481C87.993 46.5506 85.7231 46.3891 83.9288 44.9812C83.8926 44.9516 83.8549 44.924 83.8159 44.8984C83.7708 44.8768 83.7195 44.8735 83.6721 44.889C83.6248 44.9046 83.5847 44.9379 83.56 44.9825C83.5352 45.0271 83.5275 45.0796 83.5383 45.1298C83.5491 45.1799 83.5777 45.2241 83.6185 45.2535C83.6329 45.2628 83.6559 45.2816 83.6871 45.3075C84.6304 46.0505 85.7668 46.4854 86.9506 46.5563Z" fill="#0C0C0C"/>
<path d="M86.8912 48.504C87.1208 48.5188 87.3512 48.5131 87.5799 48.487C87.6323 48.4812 87.6803 48.4542 87.7134 48.4118C87.7465 48.3695 87.7619 48.3153 87.7564 48.2611C87.7508 48.207 87.7247 48.1573 87.6838 48.1231C87.6428 48.0889 87.5904 48.0729 87.538 48.0786C86.1623 48.2299 85.5058 47.5779 85.478 47.5499C85.4404 47.5131 85.3904 47.4929 85.3387 47.4937C85.2869 47.4944 85.2375 47.516 85.2009 47.5538C85.1643 47.5916 85.1434 47.6427 85.1426 47.6962C85.1418 47.7497 85.1613 47.8014 85.1968 47.8404C85.6706 48.2572 86.2692 48.4916 86.8912 48.504Z" fill="#0C0C0C"/>
<path d="M93.7782 38.1907C94.3137 38.1907 94.7478 37.7417 94.7478 37.1879C94.7478 36.6341 94.3137 36.1852 93.7782 36.1852C93.2427 36.1852 92.8087 36.6341 92.8087 37.1879C92.8087 37.7417 93.2427 38.1907 93.7782 38.1907Z" fill="#0C0C0C"/>
<path d="M84.3061 37.5759C84.8416 37.5759 85.2757 37.127 85.2757 36.5732C85.2757 36.0194 84.8416 35.5704 84.3061 35.5704C83.7707 35.5704 83.3365 36.0194 83.3365 36.5732C83.3365 37.127 83.7707 37.5759 84.3061 37.5759Z" fill="#0C0C0C"/>
<path d="M70.9784 43.8453C68.5863 43.8769 66.6149 41.2557 66.5836 38.7819C66.5524 36.308 68.4754 34.9186 70.8675 34.887L72.1203 36.5282L73.0343 43.8183L70.9784 43.8453Z" fill="#E98862"/>
<path d="M73.3567 39.8702C73.3567 39.8702 74.1646 27.6365 77.7515 26.8813C80.1404 26.3781 85.9336 29.8824 91.2993 28.8239C93.6471 28.3623 95.8757 28.962 96.1023 30.1086C96.1919 30.5628 97.6545 24.0367 93.9784 19.0854C91.0514 15.144 81.4729 14.0291 77.1153 15.3216C65.0493 18.9015 70.3738 35.4256 70.3738 35.4256L70.9118 39.6429L73.3567 39.8702Z" fill="#0C0C0C"/>
<path d="M88.395 43.6692C88.4001 43.6696 88.4053 43.6696 88.4105 43.6692C89.1812 43.6611 90.4732 43.5588 90.4681 42.9623C90.4629 42.468 89.1033 37.1478 88.9478 36.5427C88.9306 36.4956 88.8971 36.4567 88.8538 36.4337C88.8105 36.4106 88.7605 36.405 88.7134 36.418C88.6663 36.4309 88.6256 36.4615 88.5991 36.5038C88.5726 36.5461 88.5623 36.5971 88.5701 36.6468C89.174 39.0031 90.0736 42.6306 90.0774 42.9673C90.0029 43.1093 89.2067 43.2552 88.4084 43.2637C88.358 43.2649 88.31 43.2859 88.2743 43.3226C88.2385 43.3592 88.2178 43.4087 88.2163 43.4608C88.2148 43.5128 88.2327 43.5635 88.2662 43.6023C88.2998 43.6411 88.3465 43.665 88.3967 43.6692H88.395Z" fill="#0C0C0C"/>
<path d="M91.0264 31.7508C91.8365 31.5202 92.6918 31.5202 93.5019 31.7508C93.8999 31.8614 94.2795 32.0333 94.628 32.2607C94.9726 32.4833 95.2886 32.7501 95.5684 33.0547C95.6221 33.1084 95.6532 33.1818 95.6552 33.259C95.6572 33.3362 95.6299 33.4111 95.5792 33.4677C95.5284 33.5244 95.4582 33.5582 95.3836 33.562C95.309 33.5657 95.236 33.5391 95.1801 33.4879L95.1626 33.4723C94.9033 33.2242 94.615 33.0108 94.3043 32.837C93.9994 32.6643 93.671 32.5404 93.3302 32.4695C92.6594 32.3237 91.9633 32.3639 91.3124 32.586L91.2849 32.5959C91.1775 32.6352 91.0594 32.6287 90.9566 32.578C90.8538 32.5272 90.7748 32.4363 90.7368 32.3252C90.6988 32.2141 90.7051 32.092 90.7542 31.9857C90.8033 31.8794 90.8912 31.7976 90.9986 31.7583L91.0264 31.7508Z" fill="#0C0C0C"/>
<path d="M85.2898 32.254C84.6734 31.9442 83.9888 31.8084 83.3053 31.8603C82.9584 31.8836 82.6169 31.9612 82.2925 32.0903C81.9627 32.2199 81.6499 32.3917 81.3614 32.6017L81.3428 32.6144C81.2809 32.6555 81.206 32.6703 81.1338 32.6558C81.0616 32.6412 80.9976 32.5985 80.9551 32.5364C80.9126 32.4743 80.8948 32.3977 80.9055 32.3224C80.9162 32.2472 80.9545 32.179 81.0125 32.1322C81.3293 31.869 81.6769 31.6481 82.047 31.4746C82.4218 31.2976 82.8202 31.1796 83.2288 31.1245C83.638 31.0651 84.0532 31.064 84.4627 31.1213C84.8831 31.1754 85.2938 31.291 85.6826 31.4647C85.7873 31.5118 85.8697 31.6 85.9115 31.7098C85.9534 31.8197 85.9513 31.9423 85.9058 32.0506C85.8603 32.1589 85.775 32.244 85.6688 32.2873C85.5625 32.3306 85.444 32.3285 85.3393 32.2814C85.3314 32.2778 85.3232 32.2739 85.3156 32.2697L85.2898 32.254Z" fill="#0C0C0C"/>
<path d="M89.8736 23.329C91.6442 22.9464 92.6382 20.4514 92.0937 17.7563C91.5492 15.0611 89.6725 13.1864 87.9019 13.569C86.1314 13.9516 85.1374 16.4466 85.6819 19.1417C86.2264 21.8368 88.1031 23.7116 89.8736 23.329Z" fill="#0C0C0C"/>
<path d="M104.692 259.457L130.528 175.164H83.6964C74.2889 175.164 70.3672 166.913 70.3672 157.185C70.3672 147.456 79.6154 138.928 89.0223 138.928H152.228C157.965 138.928 164.399 142.557 167.548 147.517C170.697 152.478 169.845 160.164 167.564 165.609L126.192 269.53" fill="#262626"/>
<path opacity="0.8" d="M104.692 259.457L130.528 175.164H83.6964C74.2889 175.164 70.3672 166.913 70.3672 157.185C70.3672 147.456 79.6154 138.928 89.0223 138.928H152.228C157.965 138.928 164.399 142.557 167.548 147.517C170.697 152.478 169.845 160.164 167.564 165.609L126.192 269.53" fill="#0A0A0A"/>
<path d="M170.289 277.591L127.089 175.164L70.3666 175.16C57.0756 174.082 50.9885 166.549 51.1821 156.823C51.373 147.219 56.0747 137.734 65.3185 137.734H141.771C148.61 137.88 153.991 145.696 156.528 152.266L192.441 271.321" fill="#262626"/>
<path d="M47.3134 137.852C47.3134 137.852 44.7943 154.841 48.7873 164.287C53.7723 176.079 72.4596 175.16 72.4596 175.16L71.4066 137.735L47.3134 137.852Z" fill="#262626"/>
<path d="M158.153 137.517L118.086 128.931C116.416 128.573 114.861 127.786 113.563 126.641C112.266 125.497 111.269 124.033 110.664 122.384L94.9047 79.4356C94.4249 78.1466 94.196 76.7723 94.2312 75.3916C94.2664 74.0109 94.5651 72.651 95.11 71.39C95.6549 70.129 96.4353 68.9918 97.4065 68.0437C98.3776 67.0955 99.5203 66.3552 100.769 65.8651C102.018 65.375 103.348 65.1449 104.682 65.188C106.017 65.2311 107.331 65.5465 108.547 66.1161C109.764 66.6858 110.86 67.4984 111.772 68.5073C112.684 69.5162 113.394 70.7015 113.862 71.9952L127.648 109.563L162.269 116.982C162.269 116.982 158.848 137.666 158.153 137.517Z" fill="#1F41BB"/>
<path d="M111.811 90.3437C111.348 95.9657 108.068 131.04 107.622 137.965H47.3398C46.9934 131.719 45.438 104.409 44.1248 92.1944C42.8709 80.5403 41.1133 75.2368 42.5574 71.6149C45.1043 65.2273 53.2112 62.3746 58.7012 61.6062C62.0533 61.1368 67.0952 60.8002 67.0952 60.8002C67.0952 60.8002 67.5223 69.7316 77.7017 70.2287C91.5585 70.9033 90.6332 60.8002 90.7019 60.8002C92.9466 60.8002 105.166 62.4886 108.221 64.5481C112.537 67.4573 113.812 71.4214 113.863 75.0638C113.921 79.2573 112.335 83.9661 111.811 90.3437Z" fill="#1F41BB"/>
<path d="M109.442 119.001H109.427C109.405 118.999 109.383 118.993 109.363 118.982C109.343 118.972 109.325 118.957 109.31 118.939C109.296 118.921 109.285 118.901 109.278 118.878C109.271 118.856 109.268 118.833 109.27 118.81L110.835 99.3674C110.837 99.344 110.842 99.321 110.853 99.3C110.863 99.279 110.877 99.2603 110.894 99.2451C110.911 99.2299 110.932 99.2186 110.953 99.2117C110.975 99.2048 110.998 99.2026 111.02 99.2051C111.043 99.207 111.065 99.2135 111.085 99.2242C111.105 99.2349 111.123 99.2496 111.137 99.2674C111.152 99.2852 111.163 99.3058 111.17 99.328C111.177 99.3502 111.179 99.3736 111.177 99.3969L109.612 118.839C109.609 118.883 109.589 118.924 109.558 118.954C109.526 118.984 109.485 119.001 109.442 119.001Z" fill="#0C0C0C"/>
<path d="M119.133 134.109L132.36 92.0588C132.592 91.3198 133.045 90.676 133.653 90.2193C134.261 89.7627 134.993 89.5168 135.744 89.5167H189.632C190.194 89.5167 190.748 89.6542 191.248 89.918C191.749 90.1817 192.182 90.5643 192.512 91.0344C192.842 91.5044 193.06 92.0486 193.147 92.6225C193.235 93.1963 193.19 93.7835 193.016 94.3359L179.79 136.386C179.557 137.125 179.105 137.769 178.497 138.225C177.889 138.682 177.157 138.928 176.405 138.928H122.517C121.956 138.928 121.402 138.79 120.901 138.527C120.401 138.263 119.968 137.88 119.638 137.41C119.308 136.94 119.09 136.396 119.002 135.822C118.914 135.248 118.959 134.661 119.133 134.109Z" fill="#292A2E"/>
<path opacity="0.2" d="M119.133 134.109L132.36 92.0588C132.592 91.3198 133.045 90.676 133.653 90.2193C134.261 89.7627 134.993 89.5168 135.744 89.5167H189.632C190.194 89.5167 190.748 89.6542 191.248 89.918C191.749 90.1817 192.182 90.5643 192.512 91.0344C192.842 91.5044 193.06 92.0486 193.147 92.6225C193.235 93.1963 193.19 93.7835 193.016 94.3359L179.79 136.386C179.557 137.125 179.105 137.769 178.497 138.225C177.889 138.682 177.157 138.928 176.405 138.928H122.517C121.956 138.928 121.402 138.79 120.901 138.527C120.401 138.263 119.968 137.88 119.638 137.41C119.308 136.94 119.09 136.396 119.002 135.822C118.914 135.248 118.959 134.661 119.133 134.109Z" fill="white"/>
<path d="M129.923 135.518H93.8503C92.9515 135.518 92.2229 136.272 92.2229 137.201V137.245C92.2229 138.174 92.9515 138.928 93.8503 138.928H129.923C130.822 138.928 131.55 138.174 131.55 137.245V137.201C131.55 136.272 130.822 135.518 129.923 135.518Z" fill="#292A2E"/>
<path opacity="0.2" d="M129.923 135.518H93.8503C92.9515 135.518 92.2229 136.272 92.2229 137.201V137.245C92.2229 138.174 92.9515 138.928 93.8503 138.928H129.923C130.822 138.928 131.55 138.174 131.55 137.245V137.201C131.55 136.272 130.822 135.518 129.923 135.518Z" fill="white"/>
<path d="M156.075 122.119C159.196 122.119 161.727 119.502 161.727 116.274C161.727 113.045 159.196 110.429 156.075 110.429C152.953 110.429 150.423 113.045 150.423 116.274C150.423 119.502 152.953 122.119 156.075 122.119Z" fill="white"/>
<path d="M112.357 82.5056H98.0278V100.68H112.357V82.5056Z" fill="white"/>
<path d="M98.0278 97.6612C96.8672 97.6612 95.7327 97.3053 94.7677 96.6385C93.8027 95.9716 93.0505 95.0238 92.6064 93.9149C92.1623 92.806 92.0461 91.5858 92.2725 90.4086C92.4989 89.2314 93.0578 88.15 93.8784 87.3013C94.6991 86.4526 95.7447 85.8746 96.883 85.6404C98.0212 85.4063 99.2011 85.5264 100.273 85.9858C101.346 86.4451 102.262 87.2229 102.907 88.2209C103.552 89.2189 103.896 90.3922 103.896 91.5925C103.894 93.2015 103.275 94.7441 102.175 95.8818C101.075 97.0195 99.5835 97.6594 98.0278 97.6612ZM98.0278 88.0097C97.3425 88.0097 96.6726 88.2199 96.1029 88.6136C95.5331 89.0074 95.089 89.567 94.8268 90.2218C94.5646 90.8765 94.496 91.597 94.6297 92.292C94.7634 92.9871 95.0934 93.6256 95.578 94.1267C96.0626 94.6278 96.6799 94.969 97.352 95.1072C98.0241 95.2454 98.7208 95.1744 99.3539 94.9032C99.9869 94.6319 100.528 94.1726 100.909 93.5833C101.289 92.994 101.492 92.3012 101.492 91.5925C101.491 90.6425 101.126 89.7317 100.477 89.06C99.827 88.3883 98.9463 88.0106 98.0278 88.0097Z" fill="white"/>
<path d="M98.8542 94.2851C98.7236 93.9341 98.4777 93.6418 98.1596 93.4594C97.8415 93.277 97.4715 93.2162 97.1145 93.2877C97.1212 93.2707 97.1249 93.2525 97.1251 93.2341L97.6058 93.0118C97.9425 92.8637 98.2195 92.5998 98.3897 92.2649C98.5599 91.9299 98.613 91.5444 98.54 91.1735C98.4895 90.942 98.39 90.7249 98.2486 90.538C98.1072 90.3511 97.9274 90.1989 97.7223 90.0925C97.5172 89.9861 97.2918 89.928 97.0623 89.9226C96.8329 89.9172 96.6051 89.9645 96.3955 90.0611L95.2618 90.5855C95.2618 90.5809 95.2618 90.5763 95.2594 90.5717C95.255 90.5622 95.2494 90.5534 95.2429 90.5454C95.5222 90.3276 95.722 90.0185 95.8096 89.6682C95.8972 89.318 95.8675 88.9474 95.7253 88.6169C95.4105 87.736 94.2946 87.6657 93.5568 88.0062L90.5924 89.2429L91.4871 88.3045C91.7674 87.9985 91.925 87.5938 91.9279 87.1723C91.9308 86.7508 91.779 86.3438 91.5029 86.0337C91.3549 85.8788 91.1779 85.7568 90.9828 85.675C90.7877 85.5931 90.5785 85.5533 90.368 85.5579C90.1574 85.5625 89.95 85.6114 89.7584 85.7016C89.5668 85.7919 89.3949 85.9215 89.2534 86.0827L78.7128 97.9879L82.3179 101.579C83.4373 102.694 84.8533 103.438 86.3843 103.715C87.9153 103.993 89.4916 103.791 90.911 103.136L97.3356 100.157C97.6724 100.009 97.9493 99.7456 98.1196 99.4106C98.2898 99.0756 98.3429 98.69 98.2698 98.3192C98.1968 97.9863 98.023 97.6863 97.7736 97.4627C97.5242 97.2392 97.2124 97.1038 96.8834 97.0764C96.887 97.058 96.8871 97.039 96.8836 97.0205C96.8801 97.0021 96.873 96.9845 96.8629 96.9689C96.8528 96.9533 96.8398 96.9399 96.8246 96.9295C96.8094 96.9191 96.7924 96.912 96.7746 96.9085L97.9608 96.3609C98.3364 96.1965 98.6376 95.8906 98.8034 95.5053C98.9693 95.1199 98.9874 94.6838 98.8542 94.2851Z" fill="#E98862"/>
<path opacity="0.2" d="M93.1183 91.5929C93.0843 91.5931 93.0514 91.5809 93.0251 91.5586C92.9989 91.5362 92.981 91.5051 92.9747 91.4705C92.9683 91.436 92.9738 91.4002 92.9903 91.3695C93.0068 91.3387 93.0331 91.3149 93.0648 91.3021L95.0699 90.4854C95.0877 90.4781 95.1067 90.4746 95.1258 90.4749C95.1449 90.4753 95.1638 90.4795 95.1813 90.4874C95.1988 90.4953 95.2147 90.5066 95.228 90.5209C95.2413 90.5351 95.2517 90.5519 95.2587 90.5703C95.2657 90.5887 95.2692 90.6083 95.2688 90.6281C95.2685 90.6478 95.2644 90.6674 95.2568 90.6855C95.2492 90.7036 95.2382 90.72 95.2244 90.7338C95.2107 90.7475 95.1944 90.7583 95.1767 90.7656L93.1715 91.5823C93.1546 91.5892 93.1366 91.5928 93.1183 91.5929Z" fill="#0C0C0C"/>
<path opacity="0.2" d="M94.2373 94.5252C94.2035 94.5251 94.1709 94.5128 94.1449 94.4906C94.1189 94.4684 94.1012 94.4374 94.0948 94.4032C94.0883 94.3689 94.0936 94.3334 94.1097 94.3028C94.1258 94.2721 94.1518 94.2482 94.183 94.2351L96.9256 93.0942C96.961 93.0813 96.9998 93.0831 97.0339 93.0991C97.068 93.1151 97.0949 93.1441 97.1089 93.1801C97.1229 93.216 97.1229 93.2562 97.109 93.2922C97.095 93.3282 97.0682 93.3572 97.0341 93.3733L94.2919 94.5145C94.2745 94.5215 94.256 94.5251 94.2373 94.5252Z" fill="#0C0C0C"/>
<path opacity="0.2" d="M95.4335 97.7088C95.3994 97.7088 95.3663 97.6964 95.3401 97.6738C95.314 97.6512 95.2963 97.6198 95.2902 97.5851C95.2841 97.5504 95.29 97.5146 95.3068 97.4839C95.3236 97.4533 95.3504 97.4297 95.3823 97.4173L96.6897 96.9099C96.7259 96.8957 96.766 96.8971 96.8012 96.9135C96.8364 96.9299 96.8639 96.9602 96.8775 96.9976C96.8912 97.035 96.8899 97.0764 96.874 97.1129C96.8581 97.1493 96.8289 97.1777 96.7927 97.1918L95.4853 97.6992C95.4687 97.7056 95.4512 97.7088 95.4335 97.7088Z" fill="#0C0C0C"/>
<path d="M101.903 70.9453C101.84 70.9453 101.778 70.9273 101.724 70.8932C101.67 70.8591 101.626 70.8103 101.597 70.7521C100.815 69.1759 99.8426 67.2137 99.9525 65.1567C100.04 63.5208 100.781 62.0675 101.498 60.6638C101.96 59.8154 102.355 58.929 102.677 58.0135C103.07 56.7503 103.169 55.409 102.966 54.0987C102.763 52.7884 102.264 51.5462 101.51 50.473C101.481 50.4356 101.461 50.3927 101.449 50.3469C101.437 50.3011 101.434 50.2533 101.44 50.2063C101.446 50.1593 101.461 50.114 101.485 50.0732C101.508 50.0324 101.539 49.9969 101.576 49.9687C101.613 49.9405 101.655 49.9202 101.699 49.9091C101.744 49.8979 101.79 49.8962 101.836 49.9039C101.881 49.9116 101.924 49.9285 101.963 49.9538C102.002 49.9791 102.035 50.0122 102.062 50.0511C102.881 51.2157 103.424 52.564 103.644 53.9863C103.865 55.4086 103.758 56.8647 103.332 58.2361C102.999 59.1894 102.589 60.1124 102.108 60.9955C101.394 62.3942 100.719 63.7151 100.64 65.1961C100.541 67.0606 101.428 68.8499 102.21 70.4282C102.237 70.4824 102.25 70.5427 102.248 70.6034C102.246 70.6642 102.228 70.7233 102.198 70.7752C102.167 70.8271 102.124 70.87 102.073 70.8998C102.022 70.9295 101.964 70.9452 101.905 70.9453H101.903Z" fill="white"/>
<path d="M107.416 76.4873C107.34 76.4873 107.266 76.4612 107.206 76.413C107.146 76.3648 107.103 76.2972 107.084 76.221C107.065 76.1448 107.071 76.0642 107.101 75.9919C107.131 75.9196 107.183 75.8597 107.25 75.8216C108.522 75.0958 108.665 73.0757 108.067 71.5421C107.771 70.8372 107.424 70.1562 107.029 69.5046C106.502 68.6605 106.073 67.7546 105.752 66.806C105.424 65.6495 105.403 64.423 105.692 63.2554C105.981 62.0879 106.569 61.0224 107.394 60.171C107.459 60.1064 107.547 60.0711 107.637 60.0729C107.728 60.0748 107.814 60.1135 107.877 60.1806C107.94 60.2478 107.975 60.338 107.974 60.4316C107.973 60.5252 107.936 60.6147 107.872 60.6805C107.137 61.4398 106.613 62.39 106.355 63.4311C106.097 64.4723 106.116 65.5659 106.408 66.5972C106.713 67.4921 107.12 68.3465 107.62 69.1425C108.033 69.8243 108.395 70.5376 108.704 71.2762C109.404 73.0718 109.248 75.4928 107.581 76.443C107.531 76.4719 107.474 76.4872 107.416 76.4873Z" fill="white"/>
<path d="M90.7984 107.439L40.2416 129.078C38.4188 129.85 36.4181 130.055 34.4841 129.67C32.55 129.285 30.7662 128.326 29.3508 126.909C27.9353 125.493 26.9495 123.681 26.5137 121.694C26.0778 119.708 26.2109 117.633 26.8967 115.724L41.9755 73.13C43.9249 67.7015 49.4167 64.58 54.666 66.5965C57.1866 67.5648 59.232 69.5289 60.3524 72.0568C61.4727 74.5847 61.5762 77.4693 60.6401 80.0762L53.7623 100.236L83.3925 88.422" fill="#1F41BB"/>
<path d="M90.6751 107.632C90.6482 107.632 90.6219 107.624 90.5996 107.608C90.5772 107.593 90.5598 107.571 90.5494 107.545L83.1934 88.6546L53.6624 100.441C53.638 100.451 53.6113 100.453 53.5856 100.448C53.56 100.442 53.5365 100.429 53.518 100.41C53.4995 100.39 53.4868 100.366 53.4815 100.339C53.4761 100.313 53.4784 100.285 53.488 100.26L58.0544 88.139C58.0674 88.1045 58.0932 88.0768 58.126 88.0619C58.1588 88.047 58.196 88.0462 58.2293 88.0597C58.2627 88.0731 58.2895 88.0998 58.3039 88.1337C58.3183 88.1676 58.3191 88.2061 58.3061 88.2406L53.8509 100.066L83.2205 88.3436C83.2536 88.3303 83.2904 88.3311 83.323 88.3458C83.3556 88.3604 83.3813 88.3876 83.3946 88.4217L90.8004 107.44C90.8133 107.475 90.8127 107.513 90.7987 107.547C90.7848 107.581 90.7585 107.608 90.7256 107.622C90.7095 107.629 90.6924 107.632 90.6751 107.632Z" fill="#0C0C0C"/>
<path d="M44.3878 104.192C44.3561 104.192 44.3254 104.181 44.301 104.16C44.2765 104.139 44.2599 104.11 44.254 104.078C44.2481 104.046 44.2533 104.013 44.2687 103.984C44.2842 103.956 44.3088 103.934 44.3383 103.922L53.5876 100.158C53.6041 100.151 53.6219 100.148 53.6399 100.148C53.6578 100.148 53.6755 100.152 53.692 100.159C53.7085 100.166 53.7234 100.177 53.736 100.19C53.7485 100.203 53.7583 100.219 53.7649 100.236C53.7714 100.253 53.7746 100.272 53.7743 100.29C53.7739 100.309 53.77 100.327 53.7627 100.344C53.7554 100.361 53.745 100.376 53.7319 100.389C53.7189 100.402 53.7036 100.412 53.6868 100.418L44.4372 104.182C44.4214 104.189 44.4047 104.192 44.3878 104.192Z" fill="#0C0C0C"/>
<path d="M46.5419 126.551C46.5105 126.551 46.4801 126.54 46.4559 126.52C46.4316 126.499 46.415 126.47 46.4089 126.439C46.4028 126.407 46.4076 126.374 46.4225 126.345C46.4373 126.317 46.4613 126.295 46.4904 126.282L90.625 107.364C90.6414 107.357 90.6589 107.353 90.6767 107.353C90.6944 107.353 90.7119 107.357 90.7283 107.364C90.7447 107.371 90.7596 107.381 90.7721 107.394C90.7846 107.407 90.7945 107.422 90.8013 107.439C90.8081 107.456 90.8115 107.474 90.8115 107.493C90.8115 107.511 90.808 107.529 90.8012 107.546C90.7943 107.563 90.7844 107.579 90.7718 107.591C90.7593 107.604 90.7444 107.615 90.728 107.622L46.5934 126.54C46.5771 126.548 46.5596 126.551 46.5419 126.551Z" fill="#0C0C0C"/>
<path d="M270.609 240.413C270.518 240.413 270.431 240.375 270.366 240.309C269.883 239.808 269.094 230.629 266.97 203.301C266.101 192.118 265.28 181.556 264.681 175.137C264.638 174.679 264.467 174.625 264.41 174.608C263.59 174.352 261.096 176.386 259.704 178.167C259.647 178.24 259.564 178.287 259.473 178.297C259.383 178.307 259.292 178.279 259.221 178.22C259.15 178.161 259.105 178.075 259.095 177.981C259.086 177.887 259.113 177.794 259.17 177.72C260.091 176.543 263.091 173.456 264.608 173.928C264.914 174.023 265.294 174.298 265.365 175.069C265.964 181.493 266.785 192.058 267.655 203.244C268.945 219.851 270.408 238.665 270.888 239.85C270.925 239.903 270.947 239.966 270.952 240.031C270.956 240.096 270.944 240.161 270.915 240.219C270.886 240.278 270.842 240.326 270.788 240.36C270.734 240.395 270.672 240.413 270.609 240.413Z" fill="#494949"/>
<path d="M263.799 186.916C269.497 182.193 271.385 174.841 268.017 170.496C264.649 166.151 257.3 166.457 251.603 171.18C245.906 175.903 244.017 183.254 247.385 187.6C250.753 191.945 258.102 191.639 263.799 186.916Z" fill="#1F41BB"/>
<path opacity="0.2" d="M263.799 186.916C269.497 182.193 271.385 174.841 268.017 170.496C264.649 166.151 257.3 166.457 251.603 171.18C245.906 175.903 244.017 183.254 247.385 187.6C250.753 191.945 258.102 191.639 263.799 186.916Z" fill="white"/>
<path d="M248.982 188.705C248.95 188.705 248.918 188.695 248.89 188.677C248.863 188.659 248.841 188.633 248.827 188.603C248.813 188.572 248.808 188.538 248.812 188.505C248.816 188.471 248.829 188.44 248.85 188.414L265.087 168.164C265.102 168.146 265.119 168.13 265.139 168.119C265.159 168.108 265.181 168.101 265.204 168.098C265.227 168.096 265.25 168.098 265.271 168.105C265.293 168.112 265.313 168.123 265.331 168.138C265.348 168.153 265.363 168.172 265.373 168.193C265.384 168.214 265.39 168.237 265.392 168.26C265.394 168.284 265.392 168.307 265.385 168.33C265.377 168.352 265.366 168.373 265.351 168.391L249.114 188.641C249.098 188.661 249.078 188.677 249.055 188.688C249.032 188.699 249.007 188.705 248.982 188.705Z" fill="white"/>
<path d="M274.151 236.071C274.096 236.071 274.042 236.058 273.993 236.032C273.944 236.006 273.902 235.968 273.871 235.922C273.839 235.876 273.818 235.822 273.811 235.766C273.803 235.71 273.808 235.653 273.826 235.599L279.925 217.459C280.105 216.926 280.411 216.448 280.815 216.069C281.22 215.69 281.71 215.422 282.24 215.29C282.771 215.158 283.325 215.165 283.852 215.311C284.379 215.458 284.862 215.739 285.257 216.129L288.481 219.314C288.547 219.379 288.585 219.469 288.587 219.563C288.589 219.657 288.555 219.748 288.492 219.816C288.429 219.884 288.343 219.924 288.252 219.926C288.161 219.928 288.073 219.893 288.007 219.828L284.783 216.642C284.471 216.335 284.09 216.113 283.673 215.998C283.257 215.882 282.82 215.876 282.401 215.981C281.983 216.085 281.596 216.297 281.277 216.596C280.957 216.895 280.716 217.272 280.574 217.693L274.475 235.833C274.451 235.902 274.408 235.963 274.35 236.006C274.292 236.048 274.222 236.071 274.151 236.071Z" fill="#494949"/>
<path d="M297.49 229.358C301.713 225.901 301.462 218.299 296.93 212.378C292.398 206.457 285.302 204.459 281.079 207.916C276.857 211.372 277.108 218.974 281.64 224.895C286.172 230.816 293.268 232.814 297.49 229.358Z" fill="#1F41BB"/>
<path d="M267.838 239.256C267.761 239.256 267.686 239.229 267.626 239.179C267.565 239.13 267.523 239.061 267.505 238.983L257.27 194.724C257.2 194.422 257.051 194.147 256.839 193.927C256.627 193.707 256.361 193.552 256.069 193.479C255.778 193.405 255.473 193.416 255.187 193.511C254.901 193.605 254.646 193.779 254.45 194.014L251.295 197.785C251.265 197.82 251.229 197.849 251.189 197.87C251.149 197.891 251.105 197.903 251.06 197.906C251.015 197.91 250.97 197.904 250.927 197.889C250.884 197.875 250.845 197.851 250.81 197.821C250.776 197.79 250.748 197.753 250.728 197.711C250.708 197.67 250.696 197.624 250.693 197.578C250.689 197.531 250.695 197.484 250.709 197.44C250.723 197.396 250.746 197.355 250.775 197.32L253.931 193.549C254.21 193.216 254.572 192.969 254.978 192.835C255.384 192.702 255.818 192.686 256.232 192.791C256.646 192.895 257.024 193.116 257.325 193.428C257.625 193.74 257.837 194.132 257.936 194.56L268.171 238.819C268.192 238.911 268.177 239.007 268.13 239.088C268.082 239.168 268.006 239.225 267.917 239.247C267.891 239.253 267.865 239.256 267.838 239.256Z" fill="#494949"/>
<path d="M264.063 207.617C265.308 200.176 262.015 193.374 256.709 192.425C251.403 191.476 246.093 196.739 244.848 204.18C243.604 211.621 246.897 218.423 252.203 219.371C257.509 220.32 262.819 215.058 264.063 207.617Z" fill="#1F41BB"/>
<path d="M270.61 240.413C270.596 240.412 270.581 240.412 270.567 240.41C270.477 240.398 270.395 240.35 270.339 240.276C270.282 240.202 270.257 240.108 270.268 240.014L276.804 185.133C276.875 184.535 277.112 183.971 277.486 183.509C277.86 183.047 278.354 182.706 278.911 182.528C279.468 182.349 280.062 182.341 280.623 182.504C281.184 182.667 281.688 182.994 282.073 183.446L289.543 192.197C289.604 192.267 289.634 192.36 289.629 192.454C289.623 192.548 289.581 192.636 289.513 192.698C289.445 192.76 289.355 192.792 289.264 192.786C289.174 192.78 289.089 192.737 289.028 192.667L281.558 183.916C281.26 183.567 280.871 183.314 280.437 183.188C280.003 183.062 279.544 183.068 279.113 183.206C278.683 183.344 278.301 183.608 278.012 183.966C277.723 184.323 277.541 184.759 277.486 185.222L270.949 240.101C270.939 240.186 270.899 240.265 270.836 240.323C270.774 240.38 270.693 240.412 270.61 240.413Z" fill="#494949"/>
<path d="M297.204 197.059C299.81 192.186 296.743 185.272 290.354 181.617C283.965 177.962 276.672 178.949 274.066 183.822C271.459 188.696 274.526 195.609 280.915 199.264C287.305 202.919 294.597 201.932 297.204 197.059Z" fill="#1F41BB"/>
<path opacity="0.2" d="M297.49 229.358C301.713 225.901 301.462 218.299 296.93 212.378C292.398 206.457 285.302 204.459 281.079 207.916C276.857 211.372 277.108 218.974 281.64 224.895C286.172 230.816 293.268 232.814 297.49 229.358Z" fill="white"/>
<path opacity="0.5" d="M264.063 207.617C265.308 200.176 262.015 193.374 256.709 192.425C251.403 191.476 246.093 196.739 244.848 204.18C243.604 211.621 246.897 218.423 252.203 219.371C257.509 220.32 262.819 215.058 264.063 207.617Z" fill="white"/>
<path opacity="0.5" d="M297.204 197.059C299.81 192.186 296.743 185.272 290.354 181.617C283.965 177.962 276.672 178.949 274.066 183.822C271.459 188.696 274.526 195.609 280.915 199.264C287.305 202.919 294.597 201.932 297.204 197.059Z" fill="white"/>
<path d="M278.969 286.978H262.25L259.479 231.655H281.74L278.969 286.978Z" fill="#292A2E"/>
<path opacity="0.3" d="M278.969 286.978H262.25L259.479 231.655H281.74L278.969 286.978Z" fill="white"/>
<path d="M297.491 229.533C297.465 229.533 297.439 229.527 297.416 229.516C297.392 229.504 297.372 229.487 297.356 229.466L280.944 208.024C280.916 207.987 280.903 207.94 280.908 207.893C280.913 207.846 280.936 207.804 280.972 207.774C281.008 207.745 281.053 207.732 281.098 207.737C281.144 207.743 281.185 207.766 281.213 207.803L297.625 229.245C297.645 229.271 297.657 229.303 297.661 229.336C297.665 229.369 297.659 229.403 297.645 229.433C297.631 229.463 297.609 229.488 297.582 229.506C297.555 229.524 297.523 229.533 297.491 229.533Z" fill="white"/>
<path d="M296.112 198.777C296.076 198.777 296.041 198.764 296.012 198.742L275.01 182.884C274.992 182.87 274.977 182.853 274.965 182.833C274.953 182.813 274.945 182.791 274.942 182.768C274.939 182.745 274.939 182.721 274.945 182.699C274.95 182.676 274.96 182.655 274.973 182.636C274.986 182.617 275.003 182.601 275.022 182.589C275.042 182.577 275.063 182.569 275.085 182.565C275.108 182.561 275.13 182.562 275.152 182.568C275.174 182.573 275.195 182.583 275.213 182.597L296.214 198.456C296.242 198.478 296.264 198.509 296.274 198.545C296.285 198.58 296.285 198.618 296.274 198.653C296.263 198.689 296.241 198.719 296.212 198.741C296.183 198.763 296.148 198.775 296.112 198.776V198.777Z" fill="white"/>
<path d="M251.35 219.14C251.335 219.14 251.32 219.138 251.305 219.134C251.261 219.122 251.224 219.092 251.201 219.052C251.178 219.011 251.172 218.962 251.184 218.917L257.869 193.013C257.875 192.99 257.885 192.968 257.898 192.949C257.912 192.931 257.929 192.915 257.949 192.903C257.968 192.891 257.99 192.883 258.013 192.88C258.035 192.876 258.058 192.878 258.08 192.884C258.102 192.89 258.123 192.901 258.141 192.915C258.159 192.93 258.174 192.947 258.185 192.968C258.196 192.988 258.204 193.011 258.206 193.034C258.209 193.058 258.207 193.082 258.201 193.104L251.516 219.009C251.506 219.046 251.484 219.08 251.454 219.104C251.424 219.128 251.387 219.14 251.35 219.14Z" fill="white"/>
</g>
<defs>
<clipPath id="clip0_1182_3524">
<rect width="300" height="306" fill="white" transform="translate(0.5)"/>
</clipPath>
</defs>
</svg>
