<svg width="160" height="60" viewBox="0 0 160 60" fill="none" xmlns="http://www.w3.org/2000/svg">
<rect width="160" height="60" rx="10" fill="white"/>
<path d="M54.8017 29.86C55.7217 29.9933 56.4551 30.3933 57.0017 31.06C57.5617 31.7133 57.8417 32.4733 57.8417 33.34C57.8417 34.06 57.6551 34.7 57.2817 35.26C56.9217 35.8067 56.3951 36.2333 55.7017 36.54C55.0084 36.8467 54.1884 37 53.2417 37H47.2617V23.04H52.9217C53.8684 23.04 54.6884 23.2 55.3817 23.52C56.0884 23.84 56.6217 24.28 56.9817 24.84C57.3417 25.4 57.5217 26.0267 57.5217 26.72C57.5217 27.5067 57.2817 28.1667 56.8017 28.7C56.3351 29.22 55.6684 29.6067 54.8017 29.86ZM50.0817 28.82H52.6217C53.2484 28.82 53.7417 28.6667 54.1017 28.36C54.4751 28.04 54.6617 27.5933 54.6617 27.02C54.6617 26.4467 54.4751 26 54.1017 25.68C53.7417 25.36 53.2484 25.2 52.6217 25.2H50.0817V28.82ZM52.9217 34.84C53.5484 34.84 54.0484 34.6733 54.4217 34.34C54.8084 33.9933 55.0017 33.52 55.0017 32.92C55.0017 32.32 54.8084 31.8467 54.4217 31.5C54.0351 31.1533 53.5284 30.98 52.9017 30.98H50.0817V34.84H52.9217ZM70.7295 25.92V37H67.9095V35.32C67.5629 35.9067 67.0895 36.36 66.4895 36.68C65.9029 36.9867 65.2229 37.14 64.4495 37.14C63.6362 37.14 62.9029 36.96 62.2495 36.6C61.6095 36.2267 61.1029 35.6867 60.7295 34.98C60.3562 34.26 60.1695 33.4067 60.1695 32.42V25.92H62.9695V32.02C62.9695 32.8867 63.1895 33.5533 63.6295 34.02C64.0695 34.4867 64.6695 34.72 65.4295 34.72C66.1895 34.72 66.7895 34.4867 67.2295 34.02C67.6829 33.5533 67.9095 32.8867 67.9095 32.02V25.92H70.7295ZM79.3666 34.64V37H77.5866C76.4532 37 75.5799 36.74 74.9666 36.22C74.3532 35.7 74.0466 34.84 74.0466 33.64V28.22H72.8666V25.92H74.0466V23.18H76.8666V25.92H79.3466V28.22H76.8666V33.64C76.8666 34 76.9532 34.26 77.1266 34.42C77.2999 34.5667 77.5999 34.64 78.0266 34.64H79.3666ZM87.1986 34.64V37H85.4186C84.2853 37 83.4119 36.74 82.7986 36.22C82.1853 35.7 81.8786 34.84 81.8786 33.64V28.22H80.6986V25.92H81.8786V23.18H84.6986V25.92H87.1786V28.22H84.6986V33.64C84.6986 34 84.7853 34.26 84.9586 34.42C85.1319 34.5667 85.4319 34.64 85.8586 34.64H87.1986ZM94.3506 25.76C95.404 25.76 96.364 25.9933 97.2306 26.46C98.0973 26.9267 98.784 27.5933 99.2906 28.46C99.7973 29.3133 100.051 30.3067 100.051 31.44C100.051 32.5733 99.7973 33.5733 99.2906 34.44C98.784 35.3067 98.0906 35.98 97.2106 36.46C96.344 36.9267 95.3773 37.16 94.3106 37.16C93.2573 37.16 92.2973 36.9267 91.4306 36.46C90.564 35.98 89.8773 35.3067 89.3706 34.44C88.8773 33.5733 88.6306 32.5733 88.6306 31.44C88.6306 30.3067 88.884 29.3133 89.3906 28.46C89.8973 27.5933 90.584 26.9267 91.4506 26.46C92.3173 25.9933 93.284 25.76 94.3506 25.76ZM94.3306 28.14C93.5306 28.14 92.8573 28.4267 92.3106 29C91.764 29.5733 91.4906 30.3933 91.4906 31.46C91.4906 32.18 91.6173 32.7933 91.8706 33.3C92.1373 33.7933 92.484 34.1667 92.9106 34.42C93.3373 34.66 93.804 34.78 94.3106 34.78C94.804 34.78 95.2706 34.6533 95.7106 34.4C96.1506 34.1467 96.504 33.7733 96.7706 33.28C97.0506 32.7733 97.1906 32.1667 97.1906 31.46C97.1906 30.74 97.0573 30.1333 96.7906 29.64C96.524 29.1333 96.1706 28.76 95.7306 28.52C95.304 28.2667 94.8373 28.14 94.3306 28.14ZM108.541 25.76C109.368 25.76 110.101 25.9467 110.741 26.32C111.395 26.68 111.908 27.22 112.281 27.94C112.655 28.6467 112.841 29.4933 112.841 30.48V37H110.041V30.88C110.041 30.0133 109.821 29.3533 109.381 28.9C108.941 28.4333 108.341 28.2 107.581 28.2C106.821 28.2 106.215 28.4333 105.761 28.9C105.321 29.3533 105.101 30.0133 105.101 30.88V37H102.281V25.92H105.101V27.58C105.448 26.9933 105.915 26.5467 106.501 26.24C107.101 25.92 107.781 25.76 108.541 25.76Z" fill="#0A0A0A"/>
</svg>
