<svg width="200" height="100" viewBox="0 0 200 100" fill="none" xmlns="http://www.w3.org/2000/svg">
<g filter="url(#filter0_d_615_6)">
<rect x="20" y="10" width="160" height="60" rx="10" fill="#1F41BB" shape-rendering="crispEdges"/>
<path d="M74.8017 39.86C75.7217 39.9933 76.4551 40.3933 77.0017 41.06C77.5617 41.7133 77.8417 42.4733 77.8417 43.34C77.8417 44.06 77.6551 44.7 77.2817 45.26C76.9217 45.8067 76.3951 46.2333 75.7017 46.54C75.0084 46.8467 74.1884 47 73.2417 47H67.2617V33.04H72.9217C73.8684 33.04 74.6884 33.2 75.3817 33.52C76.0884 33.84 76.6217 34.28 76.9817 34.84C77.3417 35.4 77.5217 36.0267 77.5217 36.72C77.5217 37.5067 77.2817 38.1667 76.8017 38.7C76.3351 39.22 75.6684 39.6067 74.8017 39.86ZM70.0817 38.82H72.6217C73.2484 38.82 73.7417 38.6667 74.1017 38.36C74.4751 38.04 74.6617 37.5933 74.6617 37.02C74.6617 36.4467 74.4751 36 74.1017 35.68C73.7417 35.36 73.2484 35.2 72.6217 35.2H70.0817V38.82ZM72.9217 44.84C73.5484 44.84 74.0484 44.6733 74.4217 44.34C74.8084 43.9933 75.0017 43.52 75.0017 42.92C75.0017 42.32 74.8084 41.8467 74.4217 41.5C74.0351 41.1533 73.5284 40.98 72.9017 40.98H70.0817V44.84H72.9217ZM90.7295 35.92V47H87.9095V45.32C87.5629 45.9067 87.0895 46.36 86.4895 46.68C85.9029 46.9867 85.2229 47.14 84.4495 47.14C83.6362 47.14 82.9029 46.96 82.2495 46.6C81.6095 46.2267 81.1029 45.6867 80.7295 44.98C80.3562 44.26 80.1695 43.4067 80.1695 42.42V35.92H82.9695V42.02C82.9695 42.8867 83.1895 43.5533 83.6295 44.02C84.0695 44.4867 84.6695 44.72 85.4295 44.72C86.1895 44.72 86.7895 44.4867 87.2295 44.02C87.6829 43.5533 87.9095 42.8867 87.9095 42.02V35.92H90.7295ZM99.3666 44.64V47H97.5866C96.4532 47 95.5799 46.74 94.9666 46.22C94.3532 45.7 94.0466 44.84 94.0466 43.64V38.22H92.8666V35.92H94.0466V33.18H96.8666V35.92H99.3466V38.22H96.8666V43.64C96.8666 44 96.9532 44.26 97.1266 44.42C97.2999 44.5667 97.5999 44.64 98.0266 44.64H99.3666ZM107.199 44.64V47H105.419C104.285 47 103.412 46.74 102.799 46.22C102.185 45.7 101.879 44.84 101.879 43.64V38.22H100.699V35.92H101.879V33.18H104.699V35.92H107.179V38.22H104.699V43.64C104.699 44 104.785 44.26 104.959 44.42C105.132 44.5667 105.432 44.64 105.859 44.64H107.199ZM114.351 35.76C115.404 35.76 116.364 35.9933 117.231 36.46C118.097 36.9267 118.784 37.5933 119.291 38.46C119.797 39.3133 120.051 40.3067 120.051 41.44C120.051 42.5733 119.797 43.5733 119.291 44.44C118.784 45.3067 118.091 45.98 117.211 46.46C116.344 46.9267 115.377 47.16 114.311 47.16C113.257 47.16 112.297 46.9267 111.431 46.46C110.564 45.98 109.877 45.3067 109.371 44.44C108.877 43.5733 108.631 42.5733 108.631 41.44C108.631 40.3067 108.884 39.3133 109.391 38.46C109.897 37.5933 110.584 36.9267 111.451 36.46C112.317 35.9933 113.284 35.76 114.351 35.76ZM114.331 38.14C113.531 38.14 112.857 38.4267 112.311 39C111.764 39.5733 111.491 40.3933 111.491 41.46C111.491 42.18 111.617 42.7933 111.871 43.3C112.137 43.7933 112.484 44.1667 112.911 44.42C113.337 44.66 113.804 44.78 114.311 44.78C114.804 44.78 115.271 44.6533 115.711 44.4C116.151 44.1467 116.504 43.7733 116.771 43.28C117.051 42.7733 117.191 42.1667 117.191 41.46C117.191 40.74 117.057 40.1333 116.791 39.64C116.524 39.1333 116.171 38.76 115.731 38.52C115.304 38.2667 114.837 38.14 114.331 38.14ZM128.541 35.76C129.368 35.76 130.101 35.9467 130.741 36.32C131.395 36.68 131.908 37.22 132.281 37.94C132.655 38.6467 132.841 39.4933 132.841 40.48V47H130.041V40.88C130.041 40.0133 129.821 39.3533 129.381 38.9C128.941 38.4333 128.341 38.2 127.581 38.2C126.821 38.2 126.215 38.4333 125.761 38.9C125.321 39.3533 125.101 40.0133 125.101 40.88V47H122.281V35.92H125.101V37.58C125.448 36.9933 125.915 36.5467 126.501 36.24C127.101 35.92 127.781 35.76 128.541 35.76Z" fill="white"/>
</g>
<defs>
<filter id="filter0_d_615_6" x="0" y="0" width="200" height="100" filterUnits="userSpaceOnUse" color-interpolation-filters="sRGB">
<feFlood flood-opacity="0" result="BackgroundImageFix"/>
<feColorMatrix in="SourceAlpha" type="matrix" values="0 0 0 0 0 0 0 0 0 0 0 0 0 0 0 0 0 0 127 0" result="hardAlpha"/>
<feOffset dy="10"/>
<feGaussianBlur stdDeviation="10"/>
<feComposite in2="hardAlpha" operator="out"/>
<feColorMatrix type="matrix" values="0 0 0 0 0.795833 0 0 0 0 0.84075 0 0 0 0 1 0 0 0 1 0"/>
<feBlend mode="normal" in2="BackgroundImageFix" result="effect1_dropShadow_615_6"/>
<feBlend mode="normal" in="SourceGraphic" in2="effect1_dropShadow_615_6" result="shape"/>
</filter>
</defs>
</svg>
