<svg width="357" height="64" viewBox="0 0 357 64" fill="none" xmlns="http://www.w3.org/2000/svg">
<rect x="1" y="1" width="355" height="62" rx="9" fill="#F1F4FF"/>
<rect x="1" y="1" width="355" height="62" rx="9" stroke="#1F41BB" stroke-width="2"/>
<path d="M23.1646 33.488V38H21.3406V26.88H25.1806C26.034 26.88 26.754 27.0293 27.3406 27.328C27.938 27.616 28.3806 28.0107 28.6686 28.512C28.9673 29.0133 29.1166 29.5733 29.1166 30.192C29.1166 30.7573 28.9833 31.2907 28.7166 31.792C28.45 32.2933 28.0233 32.704 27.4366 33.024C26.85 33.3333 26.098 33.488 25.1806 33.488H23.1646ZM25.1806 32.064C25.874 32.064 26.3913 31.8987 26.7326 31.568C27.074 31.2373 27.2446 30.7787 27.2446 30.192C27.2446 29.5947 27.074 29.1307 26.7326 28.8C26.3913 28.4693 25.874 28.304 25.1806 28.304H23.1646V32.064H25.1806ZM32.6803 26.16V38H30.8563V26.16H32.6803ZM38.627 29.04C39.3203 29.04 39.9283 29.2 40.451 29.52C40.9843 29.8293 41.395 30.24 41.683 30.752V29.184H43.523V38H41.683V36.352C41.3843 36.896 40.9737 37.3333 40.451 37.664C39.9283 37.984 39.3203 38.144 38.627 38.144C37.859 38.144 37.155 37.952 36.515 37.568C35.8857 37.1733 35.3843 36.6293 35.011 35.936C34.6483 35.232 34.467 34.4373 34.467 33.552C34.467 32.6667 34.6483 31.8827 35.011 31.2C35.3843 30.5173 35.8857 29.9893 36.515 29.616C37.155 29.232 37.859 29.04 38.627 29.04ZM39.011 30.624C38.5417 30.624 38.1043 30.7413 37.699 30.976C37.2937 31.2 36.963 31.536 36.707 31.984C36.4617 32.4213 36.339 32.944 36.339 33.552C36.339 34.16 36.4617 34.6933 36.707 35.152C36.963 35.6107 37.2937 35.9627 37.699 36.208C38.115 36.4427 38.5523 36.56 39.011 36.56C39.4803 36.56 39.9177 36.4427 40.323 36.208C40.7283 35.9733 41.0537 35.632 41.299 35.184C41.555 34.7253 41.683 34.192 41.683 33.584C41.683 32.976 41.555 32.448 41.299 32C41.0537 31.552 40.7283 31.2107 40.323 30.976C39.9177 30.7413 39.4803 30.624 39.011 30.624ZM49.6308 29.04C50.6974 29.04 51.5774 29.296 52.2708 29.808C52.9748 30.3093 53.4494 31.0293 53.6948 31.968H51.7268C51.5668 31.5307 51.3108 31.1893 50.9588 30.944C50.6068 30.6987 50.1641 30.576 49.6308 30.576C48.8841 30.576 48.2868 30.8427 47.8388 31.376C47.4014 31.8987 47.1828 32.6347 47.1828 33.584C47.1828 34.5333 47.4014 35.2747 47.8388 35.808C48.2868 36.3413 48.8841 36.608 49.6308 36.608C50.6868 36.608 51.3854 36.144 51.7268 35.216H53.6948C53.4388 36.112 52.9588 36.8267 52.2548 37.36C51.5508 37.8827 50.6761 38.144 49.6308 38.144C48.7881 38.144 48.0414 37.9573 47.3908 37.584C46.7401 37.2 46.2281 36.6667 45.8548 35.984C45.4921 35.2907 45.3108 34.4907 45.3108 33.584C45.3108 32.6773 45.4921 31.8827 45.8548 31.2C46.2281 30.5067 46.7401 29.9733 47.3908 29.6C48.0414 29.2267 48.7881 29.04 49.6308 29.04ZM63.5925 33.344C63.5925 33.6533 63.5712 33.9413 63.5285 34.208H56.7765C56.8192 34.944 57.0645 35.5307 57.5125 35.968C57.9712 36.3947 58.5418 36.608 59.2245 36.608C60.2165 36.608 60.9152 36.1973 61.3205 35.376H63.2885C63.0218 36.1867 62.5365 36.8533 61.8325 37.376C61.1285 37.888 60.2592 38.144 59.2245 38.144C58.3818 38.144 57.6352 37.9573 56.9845 37.584C56.3338 37.2 55.8218 36.6667 55.4485 35.984C55.0858 35.2907 54.9045 34.4907 54.9045 33.584C54.9045 32.6773 55.0858 31.8827 55.4485 31.2C55.8218 30.5067 56.3392 29.9733 57.0005 29.6C57.6725 29.2267 58.4405 29.04 59.3045 29.04C60.1365 29.04 60.8778 29.2213 61.5285 29.584C62.1792 29.9467 62.6858 30.4533 63.0485 31.104C63.4112 31.7547 63.5925 32.5013 63.5925 33.344ZM61.6885 32.96C61.6778 32.2347 61.4378 31.6587 60.9685 31.232C60.4992 30.7947 59.9178 30.576 59.2245 30.576C58.5738 30.576 58.0192 30.7947 57.5605 31.232C57.1125 31.6587 56.8565 32.2347 56.7925 32.96H61.6885ZM70.0275 29.04C70.6675 29.04 71.2435 29.184 71.7555 29.472C72.2782 29.76 72.6888 30.1867 72.9875 30.752C73.2968 31.3173 73.4515 32 73.4515 32.8V38H71.6435V33.072C71.6435 32.2827 71.4462 31.68 71.0515 31.264C70.6568 30.8373 70.1182 30.624 69.4355 30.624C68.7528 30.624 68.2088 30.8373 67.8035 31.264C67.4088 31.68 67.2115 32.2827 67.2115 33.072V38H65.3875V26.16H67.2115V30.576C67.4995 30.0747 67.8835 29.696 68.3635 29.44C68.8542 29.1733 69.4088 29.04 70.0275 29.04ZM79.6821 29.04C80.5248 29.04 81.2875 29.2267 81.9701 29.6C82.6528 29.9733 83.1915 30.5067 83.5861 31.2C83.9808 31.8933 84.1781 32.688 84.1781 33.584C84.1781 34.48 83.9755 35.2747 83.5701 35.968C83.1648 36.6613 82.6101 37.2 81.9061 37.584C81.2128 37.9573 80.4448 38.144 79.6021 38.144C78.7701 38.144 78.0181 37.9573 77.3461 37.584C76.6741 37.2 76.1461 36.6667 75.7621 35.984C75.3781 35.2907 75.1861 34.4907 75.1861 33.584C75.1861 32.688 75.3835 31.8933 75.7781 31.2C76.1728 30.5067 76.7115 29.9733 77.3941 29.6C78.0768 29.2267 78.8395 29.04 79.6821 29.04ZM79.6501 30.576C79.1808 30.576 78.7488 30.6933 78.3541 30.928C77.9595 31.152 77.6395 31.4933 77.3941 31.952C77.1595 32.4 77.0421 32.944 77.0421 33.584C77.0421 34.224 77.1541 34.7733 77.3781 35.232C77.6128 35.6907 77.9221 36.0373 78.3061 36.272C78.7008 36.496 79.1328 36.608 79.6021 36.608C80.0715 36.608 80.5088 36.4907 80.9141 36.256C81.3301 36.0213 81.6661 35.68 81.9221 35.232C82.1781 34.7733 82.3061 34.224 82.3061 33.584C82.3061 32.944 82.1835 32.4 81.9381 31.952C81.6928 31.4933 81.3675 31.152 80.9621 30.928C80.5568 30.6933 80.1195 30.576 79.6501 30.576ZM87.8053 26.16V38H85.9813V26.16H87.8053ZM93.752 29.04C94.4453 29.04 95.0533 29.2 95.576 29.52C96.1093 29.8293 96.52 30.24 96.808 30.752V26.16H98.648V38H96.808V36.352C96.5093 36.896 96.0987 37.3333 95.576 37.664C95.0533 37.984 94.4453 38.144 93.752 38.144C92.984 38.144 92.28 37.952 91.64 37.568C91.0107 37.1733 90.5093 36.6293 90.136 35.936C89.7733 35.232 89.592 34.4373 89.592 33.552C89.592 32.6667 89.7733 31.8827 90.136 31.2C90.5093 30.5173 91.0107 29.9893 91.64 29.616C92.28 29.232 92.984 29.04 93.752 29.04ZM94.136 30.624C93.6667 30.624 93.2293 30.7413 92.824 30.976C92.4187 31.2 92.088 31.536 91.832 31.984C91.5867 32.4213 91.464 32.944 91.464 33.552C91.464 34.16 91.5867 34.6933 91.832 35.152C92.088 35.6107 92.4187 35.9627 92.824 36.208C93.24 36.4427 93.6773 36.56 94.136 36.56C94.6053 36.56 95.0427 36.4427 95.448 36.208C95.8533 35.9733 96.1787 35.632 96.424 35.184C96.68 34.7253 96.808 34.192 96.808 33.584C96.808 32.976 96.68 32.448 96.424 32C96.1787 31.552 95.8533 31.2107 95.448 30.976C95.0427 30.7413 94.6053 30.624 94.136 30.624ZM109.124 33.344C109.124 33.6533 109.102 33.9413 109.06 34.208H102.308C102.35 34.944 102.596 35.5307 103.044 35.968C103.502 36.3947 104.073 36.608 104.756 36.608C105.748 36.608 106.446 36.1973 106.852 35.376H108.82C108.553 36.1867 108.068 36.8533 107.364 37.376C106.66 37.888 105.79 38.144 104.756 38.144C103.913 38.144 103.166 37.9573 102.516 37.584C101.865 37.2 101.353 36.6667 100.98 35.984C100.617 35.2907 100.436 34.4907 100.436 33.584C100.436 32.6773 100.617 31.8827 100.98 31.2C101.353 30.5067 101.87 29.9733 102.532 29.6C103.204 29.2267 103.972 29.04 104.836 29.04C105.668 29.04 106.409 29.2213 107.06 29.584C107.71 29.9467 108.217 30.4533 108.58 31.104C108.942 31.7547 109.124 32.5013 109.124 33.344ZM107.22 32.96C107.209 32.2347 106.969 31.6587 106.5 31.232C106.03 30.7947 105.449 30.576 104.756 30.576C104.105 30.576 103.55 30.7947 103.092 31.232C102.644 31.6587 102.388 32.2347 102.324 32.96H107.22ZM112.743 30.72C113.009 30.1867 113.361 29.776 113.799 29.488C114.247 29.1893 114.775 29.04 115.383 29.04V30.928H114.919C114.204 30.928 113.66 31.1093 113.287 31.472C112.924 31.8347 112.743 32.464 112.743 33.36V38H110.919V29.184H112.743V30.72Z" fill="#626262"/>
</svg>
